<svg width="58" height="58" viewBox="0 0 58 58" fill="none" xmlns="http://www.w3.org/2000/svg">
<g id="ig 1">
<path id="Vector" d="M36.8131 13.2627C34.7758 13.1708 34.162 13.1515 29 13.1515C23.838 13.1515 23.2266 13.1708 21.1893 13.2627C15.9452 13.5019 13.5019 15.9863 13.2651 21.1869C13.1708 23.2266 13.1491 23.838 13.1491 29C13.1491 34.162 13.1708 34.7734 13.2627 36.8131C13.5019 42.0041 15.9355 44.4981 21.1869 44.7373C23.2242 44.8292 23.838 44.8509 29 44.8509C34.1644 44.8509 34.7758 44.8316 36.8131 44.7398C42.0573 44.5005 44.4981 42.0113 44.7373 36.8155C44.8292 34.7758 44.8485 34.1644 44.8485 29.0024C44.8485 23.8404 44.8292 23.229 44.7373 21.1917C44.4981 15.9887 42.0524 13.5019 36.8131 13.2627ZM29 38.9277C23.5166 38.9277 19.0723 34.4834 19.0723 29C19.0723 23.5166 23.519 19.0723 29 19.0723C34.481 19.0723 38.9277 23.5166 38.9277 29C38.9277 34.4834 34.4834 38.9277 29 38.9277ZM39.3216 21.0008C38.0408 21.0008 37.0016 19.9617 37.0016 18.6808C37.0016 17.4 38.0408 16.3608 39.3216 16.3608C40.6024 16.3608 41.6416 17.4 41.6416 18.6808C41.6416 19.9617 40.6024 21.0008 39.3216 21.0008ZM35.4453 29C35.4453 32.5598 32.5598 35.4453 29 35.4453C25.4402 35.4453 22.5548 32.5598 22.5548 29C22.5548 25.4402 25.4402 22.5548 29 22.5548C32.5598 22.5548 35.4453 25.4402 35.4453 29ZM45.9167 0H12.0833C5.41092 0 0 5.41092 0 12.0833V45.9167C0 52.5891 5.41092 58 12.0833 58H45.9167C52.5915 58 58 52.5891 58 45.9167V12.0833C58 5.41092 52.5915 0 45.9167 0ZM48.2173 36.9702C47.8983 44.0002 43.9857 47.8959 36.9726 48.2173C34.9088 48.3116 34.2514 48.3333 29 48.3333C23.7486 48.3333 23.0937 48.3116 21.0298 48.2173C14.0022 47.8959 10.1065 43.993 9.78267 36.9702C9.68842 34.9087 9.66667 34.2514 9.66667 29C9.66667 23.751 9.68842 23.0912 9.78267 21.0298C10.1065 14.0022 14.007 10.1041 21.0298 9.78508C23.0937 9.68842 23.7486 9.66667 29 9.66667C34.2514 9.66667 34.9088 9.68842 36.9726 9.78267C44.0002 10.1041 47.9032 14.0142 48.2173 21.0274C48.3116 23.0912 48.3333 23.751 48.3333 29C48.3333 34.2514 48.3116 34.9087 48.2173 36.9702Z" fill="url(#paint0_linear)"/>
</g>
<defs>
<linearGradient id="paint0_linear" x1="29" y1="0" x2="29" y2="58" gradientUnits="userSpaceOnUse">
<stop stop-color="#3AA9D1"/>
<stop offset="1" stop-color="#3AC0B7"/>
</linearGradient>
</defs>
</svg>
